<svg width="40" height="40" viewBox="0 0 40 40" fill="none" xmlns="http://www.w3.org/2000/svg">
<path d="M0 8C0 3.58172 3.58172 0 8 0H32C36.4183 0 40 3.58172 40 8V32C40 36.4183 36.4183 40 32 40H8C3.58172 40 0 36.4183 0 32V8Z" fill="#674CD3"/>
<path d="M19.1055 28.293C15.8125 28.293 13.8672 26.3125 13.75 23.4062L13.7383 23.2773H16.6914L16.7031 23.3711C16.7852 24.6719 17.582 25.6445 19.0703 25.6445C20.7109 25.6445 21.5781 24.6602 21.5781 22.8203V11.0898H24.5898V22.8438C24.5898 26.2773 22.5742 28.293 19.1055 28.293Z" fill="white"/>
</svg>
