<svg width="81" height="44" viewBox="0 0 81 44" fill="none" xmlns="http://www.w3.org/2000/svg">
<path d="M67.7568 25.9516H70.6713V27.787H70.7225C71.1657 27.0392 71.7624 26.4954 72.5121 26.1555C73.2621 25.8156 74.0716 25.6457 74.9409 25.6457C75.8785 25.6457 76.7222 25.8156 77.4719 26.1555C78.2219 26.4784 78.8611 26.9288 79.3893 27.5066C79.9179 28.0844 80.3183 28.7642 80.5909 29.546C80.8638 30.3277 81 31.169 81 32.0698C81 32.9703 80.8552 33.8115 80.5654 34.5935C80.2758 35.3751 79.8668 36.0548 79.3382 36.6328C78.8269 37.2106 78.205 37.6694 77.4719 38.0094C76.7391 38.3322 75.9379 38.4938 75.0687 38.4938C74.4893 38.4938 73.978 38.4342 73.5347 38.3153C73.0918 38.1962 72.6997 38.0432 72.3587 37.8565C72.018 37.6694 71.7282 37.4741 71.4895 37.2701C71.251 37.049 71.0548 36.8368 70.9014 36.6328H70.8247V44H67.7568V25.9516ZM77.9321 32.0698C77.9321 31.5937 77.8471 31.1349 77.6764 30.6932C77.523 30.2513 77.2846 29.8603 76.9606 29.5205C76.6538 29.1806 76.2789 28.9087 75.8357 28.7047C75.3927 28.5008 74.8897 28.3988 74.3273 28.3988C73.7648 28.3988 73.2621 28.5008 72.8189 28.7047C72.3759 28.9087 71.9925 29.1806 71.6684 29.5205C71.3616 29.8603 71.1232 30.2513 70.9526 30.6932C70.7992 31.1349 70.7225 31.5937 70.7225 32.0698C70.7225 32.5455 70.7992 33.0044 70.9526 33.4463C71.1232 33.888 71.3616 34.279 71.6684 34.619C71.9925 34.9587 72.3759 35.2308 72.8189 35.4347C73.2621 35.6387 73.7648 35.7406 74.3273 35.7406C74.8897 35.7406 75.3927 35.6387 75.8357 35.4347C76.2789 35.2308 76.6538 34.9587 76.9606 34.619C77.2846 34.279 77.523 33.888 77.6764 33.4463C77.8471 33.0044 77.9321 32.5455 77.9321 32.0698Z" fill="#0588F0"/>
<path d="M64.0834 31.5596C64.0834 32.6475 63.8958 33.6331 63.5209 34.5167C63.1458 35.3834 62.6344 36.1227 61.987 36.7345C61.3392 37.3463 60.5722 37.8224 59.686 38.1621C58.7995 38.4852 57.8367 38.6464 56.7971 38.6464C55.7572 38.6464 54.7943 38.4852 53.9081 38.1621C53.0216 37.8224 52.2463 37.3463 51.5816 36.7345C50.9339 36.1227 50.4225 35.3834 50.0477 34.5167C49.6897 33.6331 49.5108 32.6475 49.5108 31.5596V6.51311H45.9443L51.1214 0L56.2985 6.51311H52.7321V31.4577C52.7321 31.8996 52.8002 32.3671 52.9366 32.8597C53.0728 33.3358 53.2946 33.7774 53.6013 34.1853C53.9251 34.5932 54.3428 34.9332 54.8541 35.205C55.3823 35.4599 56.0301 35.5874 56.7971 35.5874C57.5641 35.5874 58.2032 35.4599 58.7145 35.205C59.2428 34.9332 59.6605 34.5932 59.9673 34.1853C60.291 33.7774 60.5211 33.3358 60.6575 32.8597C60.7937 32.3671 60.8621 31.8996 60.8621 31.4577V20.1394H64.0834V31.5596Z" fill="#0588F0"/>
<path d="M42.5781 13.1631H45.8482V38.0622H42.5781V13.1631Z" fill="#313131"/>
<path d="M36.0508 18.9158H39.1187V38.1875H36.0508V18.9158Z" fill="#313131"/>
<path d="M29.4092 25.9517H32.4771V38.1879H29.4092V25.9517ZM28.9746 21.7965C28.9746 21.3037 29.1536 20.8788 29.5115 20.5219C29.8867 20.148 30.3552 19.9611 30.9176 19.9611C31.4801 19.9611 31.9489 20.1395 32.3237 20.4964C32.7159 20.8363 32.9118 21.2697 32.9118 21.7965C32.9118 22.3233 32.7159 22.7652 32.3237 23.1221C31.9489 23.462 31.4801 23.6319 30.9176 23.6319C30.3552 23.6319 29.8867 23.4535 29.5115 23.0966C29.1536 22.7227 28.9746 22.2893 28.9746 21.7965Z" fill="#313131"/>
<path d="M15.626 18.9158H18.6939V31.0243L23.4236 25.9516H27.3607L22.0942 31.5087L27.6931 38.1875H23.6281L18.745 31.942H18.6939V38.1875H15.626V18.9158Z" fill="#313131"/>
<path d="M10.0985 24.0142C9.75757 23.5214 9.29739 23.1645 8.71799 22.9435C8.15554 22.7056 7.5589 22.5866 6.92837 22.5866C6.5535 22.5866 6.18696 22.6291 5.82904 22.7141C5.48806 22.7991 5.17294 22.935 4.88309 23.122C4.61049 23.3089 4.38872 23.5553 4.21838 23.8612C4.04804 24.1501 3.96272 24.4985 3.96272 24.9064C3.96272 25.5182 4.17587 25.9856 4.60187 26.3085C5.02787 26.6314 5.55643 26.9118 6.18696 27.1497C6.81749 27.3876 7.50777 27.617 8.2578 27.838C9.00783 28.0589 9.69812 28.3648 10.3286 28.7557C10.9592 29.1466 11.4877 29.6649 11.9137 30.3108C12.3397 30.9564 12.5529 31.8149 12.5529 32.8855C12.5529 33.8542 12.3739 34.7038 12.016 35.4347C11.6581 36.1485 11.1723 36.7431 10.5587 37.2192C9.9621 37.6949 9.2635 38.0518 8.46233 38.2898C7.66116 38.5275 6.81749 38.6467 5.9313 38.6467C4.8064 38.6467 3.72401 38.4597 2.68442 38.0859C1.64484 37.7118 0.750034 37.0831 0 36.1995L2.42876 33.8542C2.82087 34.4488 3.33219 34.9163 3.96272 35.2563C4.61049 35.5791 5.29215 35.7406 6.008 35.7406C6.38287 35.7406 6.75803 35.6896 7.1329 35.5877C7.50777 35.4857 7.84875 35.3328 8.15554 35.1288C8.46233 34.9249 8.70936 34.67 8.89695 34.3641C9.08453 34.041 9.17817 33.6758 9.17817 33.2679C9.17817 32.6051 8.96503 32.0953 8.53903 31.7384C8.11303 31.3815 7.58447 31.0839 6.95394 30.8462C6.32341 30.5913 5.63313 30.3532 4.88309 30.1324C4.13306 29.9113 3.44278 29.6139 2.81226 29.24C2.18173 28.8492 1.65317 28.3393 1.22717 27.7105C0.801167 27.0647 0.588016 26.2065 0.588016 25.1358C0.588016 24.2011 0.775598 23.3939 1.15047 22.7141C1.54258 22.0343 2.04528 21.4735 2.65886 21.0316C3.28939 20.5728 4.00523 20.2329 4.8064 20.0119C5.60756 19.791 6.42567 19.6805 7.26073 19.6805C8.21529 19.6805 9.13567 19.825 10.0219 20.1139C10.9253 20.4028 11.7348 20.8787 12.4506 21.5415L10.0985 24.0142Z" fill="#313131"/>
</svg>
